<mxfile host="app.diagrams.net" modified="2024-02-15T22:54:37.916Z" agent="Mozilla/5.0 (Macintosh; Intel Mac OS X 10_15_7) AppleWebKit/537.36 (KHTML, like Gecko) Chrome/121.0.0.0 Safari/537.36" etag="1X_SGYa7uup3PrrieWE5" version="22.1.19" type="device">
  <diagram name="Page-1" id="c7yCzXQF6rg9m2fA7mxR">
    <mxGraphModel dx="1095" dy="688" grid="1" gridSize="10" guides="1" tooltips="1" connect="1" arrows="1" fold="1" page="1" pageScale="1" pageWidth="850" pageHeight="1100" math="0" shadow="0">
      <root>
        <mxCell id="0" />
        <mxCell id="1" parent="0" />
        <mxCell id="MOwkXJNdFsfdi-zFn4SZ-1" value="DevSecOps Platform" style="rounded=0;whiteSpace=wrap;html=1;fillColor=none;verticalAlign=top;" vertex="1" parent="1">
          <mxGeometry x="170.84" y="505.2" width="580" height="200" as="geometry" />
        </mxCell>
        <mxCell id="MOwkXJNdFsfdi-zFn4SZ-2" style="edgeStyle=orthogonalEdgeStyle;rounded=1;orthogonalLoop=1;jettySize=auto;html=1;exitX=0.5;exitY=0;exitDx=0;exitDy=0;strokeWidth=2;" edge="1" parent="1" source="MOwkXJNdFsfdi-zFn4SZ-4" target="MOwkXJNdFsfdi-zFn4SZ-9">
          <mxGeometry relative="1" as="geometry">
            <Array as="points">
              <mxPoint x="549" y="470" />
              <mxPoint x="380" y="470" />
            </Array>
          </mxGeometry>
        </mxCell>
        <mxCell id="MOwkXJNdFsfdi-zFn4SZ-3" value="&lt;font style=&quot;font-size: 14px;&quot;&gt;Deploy&lt;/font&gt;" style="edgeLabel;html=1;align=center;verticalAlign=middle;resizable=0;points=[];" vertex="1" connectable="0" parent="MOwkXJNdFsfdi-zFn4SZ-2">
          <mxGeometry x="-0.3599" y="-2" relative="1" as="geometry">
            <mxPoint as="offset" />
          </mxGeometry>
        </mxCell>
        <mxCell id="MOwkXJNdFsfdi-zFn4SZ-4" value="" style="rounded=0;whiteSpace=wrap;html=1;fillColor=none;verticalAlign=top;" vertex="1" parent="1">
          <mxGeometry x="358.68" y="528.82" width="380" height="141.18" as="geometry" />
        </mxCell>
        <mxCell id="MOwkXJNdFsfdi-zFn4SZ-5" value="Local DevX" style="rounded=0;whiteSpace=wrap;html=1;fillColor=none;verticalAlign=top;" vertex="1" parent="1">
          <mxGeometry x="40" width="790" height="430" as="geometry" />
        </mxCell>
        <mxCell id="MOwkXJNdFsfdi-zFn4SZ-9" value="&lt;b&gt;LocalStack Cloud&lt;/b&gt;" style="points=[[0,0],[0.25,0],[0.5,0],[0.75,0],[1,0],[1,0.25],[1,0.5],[1,0.75],[1,1],[0.75,1],[0.5,1],[0.25,1],[0,1],[0,0.75],[0,0.5],[0,0.25]];outlineConnect=0;gradientColor=none;html=1;whiteSpace=wrap;fontSize=12;fontStyle=0;container=1;pointerEvents=0;collapsible=0;recursiveResize=0;shape=mxgraph.aws4.group;grIcon=mxgraph.aws4.group_aws_cloud;strokeColor=#232F3E;fillColor=none;verticalAlign=top;align=left;spacingLeft=30;fontColor=#232F3E;dashed=0;" vertex="1" parent="1">
          <mxGeometry x="87.84" y="40" width="662.16" height="360" as="geometry" />
        </mxCell>
        <mxCell id="MOwkXJNdFsfdi-zFn4SZ-12" value="&lt;b&gt;&lt;font style=&quot;font-size: 14px;&quot;&gt;Hello World&lt;br&gt;Lambda&lt;br&gt;&lt;/font&gt;&lt;/b&gt;" style="sketch=0;points=[[0,0,0],[0.25,0,0],[0.5,0,0],[0.75,0,0],[1,0,0],[0,1,0],[0.25,1,0],[0.5,1,0],[0.75,1,0],[1,1,0],[0,0.25,0],[0,0.5,0],[0,0.75,0],[1,0.25,0],[1,0.5,0],[1,0.75,0]];outlineConnect=0;fontColor=#232F3E;gradientColor=#F78E04;gradientDirection=north;fillColor=#D05C17;strokeColor=#ffffff;dashed=0;verticalLabelPosition=bottom;verticalAlign=top;align=center;html=1;fontSize=12;fontStyle=0;aspect=fixed;shape=mxgraph.aws4.resourceIcon;resIcon=mxgraph.aws4.lambda;" vertex="1" parent="MOwkXJNdFsfdi-zFn4SZ-9">
          <mxGeometry x="542.16" y="210" width="78" height="78" as="geometry" />
        </mxCell>
        <mxCell id="MOwkXJNdFsfdi-zFn4SZ-14" value="&lt;b&gt;&lt;font style=&quot;font-size: 14px;&quot;&gt;API Gateway&lt;/font&gt;&lt;/b&gt;" style="sketch=0;points=[[0,0,0],[0.25,0,0],[0.5,0,0],[0.75,0,0],[1,0,0],[0,1,0],[0.25,1,0],[0.5,1,0],[0.75,1,0],[1,1,0],[0,0.25,0],[0,0.5,0],[0,0.75,0],[1,0.25,0],[1,0.5,0],[1,0.75,0]];outlineConnect=0;fontColor=#232F3E;gradientColor=#FF4F8B;gradientDirection=north;fillColor=#BC1356;strokeColor=#ffffff;dashed=0;verticalLabelPosition=bottom;verticalAlign=top;align=center;html=1;fontSize=12;fontStyle=0;aspect=fixed;shape=mxgraph.aws4.resourceIcon;resIcon=mxgraph.aws4.api_gateway;" vertex="1" parent="MOwkXJNdFsfdi-zFn4SZ-9">
          <mxGeometry x="142.16" y="210" width="78" height="78" as="geometry" />
        </mxCell>
        <mxCell id="MOwkXJNdFsfdi-zFn4SZ-38" value="&lt;b&gt;&lt;font style=&quot;font-size: 14px;&quot;&gt;Policy Evaluation&lt;/font&gt;&lt;/b&gt;" style="sketch=0;points=[[0,0,0],[0.25,0,0],[0.5,0,0],[0.75,0,0],[1,0,0],[0,1,0],[0.25,1,0],[0.5,1,0],[0.75,1,0],[1,1,0],[0,0.25,0],[0,0.5,0],[0,0.75,0],[1,0.25,0],[1,0.5,0],[1,0.75,0]];outlineConnect=0;fontColor=#232F3E;fillColor=#DD344C;strokeColor=#ffffff;dashed=0;verticalLabelPosition=bottom;verticalAlign=top;align=center;html=1;fontSize=12;fontStyle=0;aspect=fixed;shape=mxgraph.aws4.resourceIcon;resIcon=mxgraph.aws4.security_identity_and_compliance;" vertex="1" parent="MOwkXJNdFsfdi-zFn4SZ-9">
          <mxGeometry x="352.15999999999997" y="80" width="78" height="78" as="geometry" />
        </mxCell>
        <mxCell id="MOwkXJNdFsfdi-zFn4SZ-39" value="&lt;b&gt;&lt;font style=&quot;font-size: 14px;&quot;&gt;Policy Cached&lt;/font&gt;&lt;/b&gt;" style="sketch=0;points=[[0,0,0],[0.25,0,0],[0.5,0,0],[0.75,0,0],[1,0,0],[0,1,0],[0.25,1,0],[0.5,1,0],[0.75,1,0],[1,1,0],[0,0.25,0],[0,0.5,0],[0,0.75,0],[1,0.25,0],[1,0.5,0],[1,0.75,0]];outlineConnect=0;fontColor=#232F3E;fillColor=#C925D1;strokeColor=#ffffff;dashed=0;verticalLabelPosition=bottom;verticalAlign=top;align=center;html=1;fontSize=12;fontStyle=0;aspect=fixed;shape=mxgraph.aws4.resourceIcon;resIcon=mxgraph.aws4.database;" vertex="1" parent="MOwkXJNdFsfdi-zFn4SZ-9">
          <mxGeometry x="542.16" y="80" width="78" height="78" as="geometry" />
        </mxCell>
        <mxCell id="MOwkXJNdFsfdi-zFn4SZ-23" value="&lt;font style=&quot;font-size: 14px;&quot;&gt;3&lt;/font&gt;" style="text;html=1;align=center;verticalAlign=middle;resizable=0;points=[];autosize=1;strokeColor=#6c8ebf;fillColor=#dae8fc;strokeWidth=4;rounded=1;glass=0;shadow=0;" vertex="1" parent="MOwkXJNdFsfdi-zFn4SZ-9">
          <mxGeometry x="92.16" y="40" width="30" height="30" as="geometry" />
        </mxCell>
        <mxCell id="MOwkXJNdFsfdi-zFn4SZ-40" style="edgeStyle=orthogonalEdgeStyle;rounded=1;orthogonalLoop=1;jettySize=auto;html=1;entryX=0;entryY=0.5;entryDx=0;entryDy=0;entryPerimeter=0;curved=0;strokeWidth=2;" edge="1" parent="MOwkXJNdFsfdi-zFn4SZ-9" source="MOwkXJNdFsfdi-zFn4SZ-38" target="MOwkXJNdFsfdi-zFn4SZ-39">
          <mxGeometry relative="1" as="geometry">
            <Array as="points">
              <mxPoint x="422" y="119" />
              <mxPoint x="422" y="119" />
            </Array>
          </mxGeometry>
        </mxCell>
        <mxCell id="MOwkXJNdFsfdi-zFn4SZ-41" style="edgeStyle=orthogonalEdgeStyle;rounded=1;orthogonalLoop=1;jettySize=auto;html=1;entryX=0;entryY=0.75;entryDx=0;entryDy=0;entryPerimeter=0;curved=0;strokeWidth=2;exitX=1;exitY=0.5;exitDx=0;exitDy=0;exitPerimeter=0;" edge="1" parent="MOwkXJNdFsfdi-zFn4SZ-9" source="MOwkXJNdFsfdi-zFn4SZ-14" target="MOwkXJNdFsfdi-zFn4SZ-38">
          <mxGeometry relative="1" as="geometry">
            <Array as="points">
              <mxPoint x="220" y="250" />
              <mxPoint x="286" y="250" />
              <mxPoint x="286" y="139" />
            </Array>
          </mxGeometry>
        </mxCell>
        <mxCell id="MOwkXJNdFsfdi-zFn4SZ-42" style="edgeStyle=orthogonalEdgeStyle;rounded=1;orthogonalLoop=1;jettySize=auto;html=1;curved=0;strokeWidth=2;" edge="1" parent="MOwkXJNdFsfdi-zFn4SZ-9" source="MOwkXJNdFsfdi-zFn4SZ-14">
          <mxGeometry relative="1" as="geometry">
            <mxPoint x="542.16" y="270" as="targetPoint" />
            <Array as="points">
              <mxPoint x="542" y="270" />
            </Array>
          </mxGeometry>
        </mxCell>
        <mxCell id="MOwkXJNdFsfdi-zFn4SZ-43" value="&lt;font style=&quot;font-size: 14px;&quot;&gt;5&lt;/font&gt;" style="text;html=1;align=center;verticalAlign=middle;resizable=0;points=[];autosize=1;strokeColor=#6c8ebf;fillColor=#dae8fc;strokeWidth=4;rounded=1;glass=0;shadow=0;" vertex="1" parent="MOwkXJNdFsfdi-zFn4SZ-9">
          <mxGeometry x="346.0799999999999" y="279.9999999999999" width="30" height="30" as="geometry" />
        </mxCell>
        <mxCell id="MOwkXJNdFsfdi-zFn4SZ-18" value="&lt;b&gt;&lt;font style=&quot;font-size: 14px;&quot;&gt;DevSecOps Tooling&lt;/font&gt;&lt;/b&gt;" style="html=1;verticalLabelPosition=bottom;align=center;labelBackgroundColor=#ffffff;verticalAlign=top;strokeWidth=2;strokeColor=#0080F0;shadow=0;dashed=0;shape=mxgraph.ios7.icons.tools;pointerEvents=1" vertex="1" parent="1">
          <mxGeometry x="230" y="567.16" width="29.7" height="29.7" as="geometry" />
        </mxCell>
        <mxCell id="MOwkXJNdFsfdi-zFn4SZ-19" value="&lt;ol style=&quot;font-size: 16px;&quot;&gt;&lt;li&gt;&lt;span style=&quot;background-color: initial;&quot;&gt;AWS SAM is used to define and deploy serverless solution&lt;/span&gt;&lt;/li&gt;&lt;li&gt;&lt;span style=&quot;background-color: initial;&quot;&gt;Invoke API Gateway with Authorization header&lt;/span&gt;&lt;br&gt;&lt;/li&gt;&lt;li&gt;&lt;span style=&quot;background-color: initial;&quot;&gt;APIGW calls authorizer. Authorizer returns principal and policy&lt;/span&gt;&lt;/li&gt;&lt;li&gt;&lt;span style=&quot;background-color: initial;&quot;&gt;Policy is evaluated and cached&lt;/span&gt;&lt;/li&gt;&lt;li&gt;&lt;span style=&quot;background-color: initial;&quot;&gt;Lambda is invoked if it&#39;s allowed&lt;/span&gt;&lt;/li&gt;&lt;/ol&gt;" style="text;html=1;align=left;verticalAlign=middle;resizable=0;points=[];autosize=1;strokeColor=#666666;fillColor=#f5f5f5;fontColor=#333333;" vertex="1" parent="1">
          <mxGeometry x="250.83999999999997" y="725.2" width="500" height="140" as="geometry" />
        </mxCell>
        <mxCell id="MOwkXJNdFsfdi-zFn4SZ-20" value="&lt;font style=&quot;font-size: 14px;&quot;&gt;1&lt;/font&gt;" style="text;html=1;align=center;verticalAlign=middle;resizable=0;points=[];autosize=1;strokeColor=#6c8ebf;fillColor=#dae8fc;strokeWidth=4;rounded=1;glass=0;shadow=0;" vertex="1" parent="1">
          <mxGeometry x="472.68" y="566.86" width="30" height="30" as="geometry" />
        </mxCell>
        <mxCell id="MOwkXJNdFsfdi-zFn4SZ-21" value="&lt;font style=&quot;font-size: 14px;&quot;&gt;2&lt;/font&gt;" style="text;html=1;align=center;verticalAlign=middle;resizable=0;points=[];autosize=1;strokeColor=#6c8ebf;fillColor=#dae8fc;strokeWidth=4;rounded=1;glass=0;shadow=0;" vertex="1" parent="1">
          <mxGeometry x="278.84" y="566.86" width="30" height="30" as="geometry" />
        </mxCell>
        <mxCell id="MOwkXJNdFsfdi-zFn4SZ-22" value="&lt;font style=&quot;font-size: 14px;&quot;&gt;4&lt;/font&gt;" style="text;html=1;align=center;verticalAlign=middle;resizable=0;points=[];autosize=1;strokeColor=#6c8ebf;fillColor=#dae8fc;strokeWidth=4;rounded=1;glass=0;shadow=0;" vertex="1" parent="1">
          <mxGeometry x="560" y="169.9999999999999" width="30" height="30" as="geometry" />
        </mxCell>
        <mxCell id="MOwkXJNdFsfdi-zFn4SZ-26" style="edgeStyle=orthogonalEdgeStyle;rounded=1;orthogonalLoop=1;jettySize=auto;html=1;exitX=0.303;exitY=0.46;exitDx=0;exitDy=0;strokeWidth=2;exitPerimeter=0;entryX=0;entryY=0.75;entryDx=0;entryDy=0;entryPerimeter=0;" edge="1" parent="1" source="MOwkXJNdFsfdi-zFn4SZ-18" target="MOwkXJNdFsfdi-zFn4SZ-14">
          <mxGeometry relative="1" as="geometry">
            <Array as="points">
              <mxPoint x="160" y="581" />
              <mxPoint x="160" y="309" />
            </Array>
            <mxPoint x="160" y="390" as="targetPoint" />
            <mxPoint x="230.83999999999992" y="552" as="sourcePoint" />
          </mxGeometry>
        </mxCell>
        <mxCell id="MOwkXJNdFsfdi-zFn4SZ-27" value="&lt;font style=&quot;font-size: 14px;&quot;&gt;Invoke&lt;/font&gt;" style="edgeLabel;html=1;align=center;verticalAlign=middle;resizable=0;points=[];" vertex="1" connectable="0" parent="MOwkXJNdFsfdi-zFn4SZ-26">
          <mxGeometry x="0.1439" y="3" relative="1" as="geometry">
            <mxPoint as="offset" />
          </mxGeometry>
        </mxCell>
        <mxCell id="MOwkXJNdFsfdi-zFn4SZ-33" value="&lt;b&gt;&lt;font style=&quot;font-size: 14px;&quot;&gt;Lambda Authorizer&lt;/font&gt;&lt;/b&gt;" style="sketch=0;points=[[0,0,0],[0.25,0,0],[0.5,0,0],[0.75,0,0],[1,0,0],[0,1,0],[0.25,1,0],[0.5,1,0],[0.75,1,0],[1,1,0],[0,0.25,0],[0,0.5,0],[0,0.75,0],[1,0.25,0],[1,0.5,0],[1,0.75,0]];outlineConnect=0;fontColor=#232F3E;gradientColor=#F78E04;gradientDirection=north;fillColor=#D05C17;strokeColor=#ffffff;dashed=0;verticalLabelPosition=bottom;verticalAlign=top;align=center;html=1;fontSize=12;fontStyle=0;aspect=fixed;shape=mxgraph.aws4.resourceIcon;resIcon=mxgraph.aws4.lambda;" vertex="1" parent="1">
          <mxGeometry x="230.84" y="80" width="78" height="78" as="geometry" />
        </mxCell>
        <mxCell id="MOwkXJNdFsfdi-zFn4SZ-34" style="edgeStyle=orthogonalEdgeStyle;rounded=1;orthogonalLoop=1;jettySize=auto;html=1;entryX=0;entryY=0.5;entryDx=0;entryDy=0;entryPerimeter=0;curved=0;strokeWidth=2;" edge="1" parent="1" source="MOwkXJNdFsfdi-zFn4SZ-14" target="MOwkXJNdFsfdi-zFn4SZ-33">
          <mxGeometry relative="1" as="geometry">
            <Array as="points">
              <mxPoint x="190" y="289" />
              <mxPoint x="190" y="119" />
            </Array>
          </mxGeometry>
        </mxCell>
        <mxCell id="MOwkXJNdFsfdi-zFn4SZ-35" style="edgeStyle=orthogonalEdgeStyle;rounded=1;orthogonalLoop=1;jettySize=auto;html=1;entryX=1;entryY=0.25;entryDx=0;entryDy=0;entryPerimeter=0;curved=0;strokeWidth=2;" edge="1" parent="1" source="MOwkXJNdFsfdi-zFn4SZ-33" target="MOwkXJNdFsfdi-zFn4SZ-14">
          <mxGeometry relative="1" as="geometry">
            <Array as="points">
              <mxPoint x="350" y="119" />
              <mxPoint x="350" y="270" />
            </Array>
          </mxGeometry>
        </mxCell>
        <mxCell id="MOwkXJNdFsfdi-zFn4SZ-36" value="SAM" style="shape=image;verticalLabelPosition=bottom;labelBackgroundColor=default;verticalAlign=top;aspect=fixed;imageAspect=0;image=data:image/jpeg,/9j/4AAQSkZJRgABAQAAAQABAAD/2wCEAAkGBwgHBgkIBwgKCgkLDRYPDQwMDRsUFRAWIB0iIiAdHx8kKDQsJCYxJx8fLT0tMTU3Ojo6Iys/RD84QzQ5OjcBCgoKDQwNGg8PGjclHyU3Nzc3Nzc3Nzc3Nzc3Nzc3Nzc3Nzc3Nzc3Nzc3Nzc3Nzc3Nzc3Nzc3Nzc3Nzc3Nzc3N//AABEIAFwAXAMBIgACEQEDEQH/xAAaAAACAwEBAAAAAAAAAAAAAAACBAEDBQAH/8QAPBAAAgEDAwIEAwIKCwAAAAAAAQIDAAQREiExBRMiQVFhBhSBMnEWIzRCUpGUobHSFSRDU1RykqKywfH/xAAZAQACAwEAAAAAAAAAAAAAAAABAgADBAX/xAAdEQADAQADAAMAAAAAAAAAAAAAARECEiFBAzFR/9oADAMBAAIRAxEAPwDzgVNQKmu7TlwIUQoBRijQQIUQoc45rQFlFbhT1CZ43IB+XiTVIAeNWSAv7z6gUeUBxbFBRimxB0+Y6Ybie3Y8fMKHQn3ZcEf6TS88MltM0My6XXkZzzuCD5gjBB86K0mB5aIFWLVa0a1YmVtFgo6AUVMmIzFqairIIZbiZIYIzJI5wqjzrDyNsCt4pLiZIYELyyMFVRySaeMXTrfwu893ID4jBII4/oSrFvvwPbPNXWVkYo7sw3drPdtAUihhcs25GvGQAx0ax4Sc5OKzBQ5UZZ/TUs26bHKLlTNHJCGkSCfEqyOAdI1KB+djYjGPOkdTMzM7FmYkszHJYnkk+dViiBpkSBjmtKMQXXT4xc3SQvbuUXKlmaNt8ADnDZ5IHi54rMBowaa0VodWzilU/JXJmkUFuy8WhyBzpwSG9cZz7GlVIq/p0kcN0k8sjKISJFCfaZgRgA+W/meADycA3m7tJJDr6bAkTEn8VJIrr9xLEf7cfdTrTTK9YFRRCjuoPlptCvrjZQ8b4xqUjIOPI+RHkQarzVq10UtGLnAyeBW7Faiz+ZtkwJhBpu7mVj27dWIyqgDJbhTznJAHnWEwypB4IxW31y6QzSwxwhHn7M9zJrJ1yGPV4RwF/GN7n14rnNm/KKRZQzBhY3nfmUFu00JjZgNzp3IJ88bH0zSQqYJXgnjmiOJInV0OM4ZTkH9YrQs3t+oz29pNaRxTSuIkntlEYBY4XVGBpIydyMHHntRsGaM/NNCBYfypip/ul+39f0frv7UVpHPay97Vb6hE5Ux3MUpB0HyVj+vFAOxNxiCQ+X5h/wC1/h91JrbbngVlS+hj5eb7P4h/RiSp+vI/h91BJG8TaZFKnnfzHqPUVPYWA/1ptLD+zjIZj9eAP3+1X6muLIRxrFGiy+FWkVAPCc5ZiN/rRXyRrj2gazbfsXFMWtvNdP27eJpGAydI4HqfQe9XR2sFnFFcdQHdMjMI4oJo2UhcZ1OpPOobDfGdxtUN1DvWk1vLBCgdldDBCseGB4bSBqGC3OSDj3rQtPwoaHJbYzLb2skM0F5HAREHIZJwGZtjjYnJxyCQBtWYDmm+mdS+TMQkt4544phKoYkMjDG6kHbgcgjYbVTeQJbSIsbs0bxrJGWGG0kZ39//AGny2umV6XphU7D1KZI0jkjtrhUGlPmIFcoPQEjON+M0jU1ipqNEdVb/AAPTv2RK49VnwezDa27EEF4LdFfBGCA2Mj6YrPzU0eidjFkyiVlZggaN1BPAJUgVMsbxNpkUqcbeh9wfMUvV0Nw8a9tgJIue2+4z6j0PuN6V1OoKakYxe/lRA50R/wDBaOVTDadqQhZDIG0Z3UAHn054oJr7VJrtouwSACwbU2wA2Plx5Y96WBqfGtNK9Qm2q4N295PBG0cbIY2bUUkiSRc+uGBAPuKtHUbj9G0/YYP5KQBogavUKYaA6jcZG1p+wwfyVVNNJPK0szl5G3LHzpcGizTqCNE23Rbm46JcdYWSFLWCQxkFZGYtgNjwIQowdixAJ2qxvhnria9XTJhoj7jElcKoOCSc7YPI5HmKr6X1u66Vb3MVlHbrJcRtE1wVYyBWGCB4tP61OM7Uz1b4q6l1aC6hvVgK3Sqs2O42cOHyAzkKcgZ0gD2rDdGyIqT4a65JIY16XOXDshBKjxKQpG53OSB7k7ZqyH4a6o/TpL17Z0XTC0CFctcCRgq6QP8AMp39avj+NetI4LSROBbx25B1pqCHUHLI6trySSQRnzFU2vxT1O0l7sPy+vs28IJjOwgIMZ55238jnipdAiAb4b62h8XTZftrGMMh1M2NIXfxZyPs5oLLol9edZXpKiGG58RZppB24wqliWZdQAwPLO+BTh+MOpnv5itj39OrU9wwGkgjTqlONxzyMnSRVB+JupjqN51CFoYLu6hELSxISUUafs6idzoAJbUTk+ZzRuiRA/0B1cRTSiwlaOGR43YY2ZG0tgZyQCRk42zTSfC/VFE/zkJtTEqsA/i15lWIgac7hnGRztTVz8bXNxBCWtbcXZab5m4VCCySGPUEGrALCPxEg87YoL74yvJry6e1trSG1lmlkSFo2ONcwl1E6t31Kvnjbipy2DihKXoHU4pdItiUaZ4Y5GZYxIVLA4DEEDwnc+mOaY/BjqcVqbq7h7EYW4JDbsDCCWBA44O/G33Z4/FvUGuY7qS3sZLmPuqkzROHCSFiVyHGBlyQRhh6+vXPxX1K6EveS01yC4HcEbalE66ZAPFx5jOSCOada0K85B/BzrYlWJumTCRkLgEqPCCAcnO2Cygg7jIrOnje3nkgnjdJY2KOh5Ug4INa8/xd1K47uqO0QTBzKI4iNbO6OznxHxExrxtzgCsi/upL+9nvLjT3Z5GkfQMDJOTgU+da9FayZtdUV1Z6XwmpzQ11GggVTQ11SkgVSKGpFSgCBogaAVNNQQsBqc1WDRUUwQ//2Q==;fontStyle=1;fontSize=14;" vertex="1" parent="1">
          <mxGeometry x="502.68" y="536.01" width="92" height="92" as="geometry" />
        </mxCell>
      </root>
    </mxGraphModel>
  </diagram>
</mxfile>
